<svg width="100%" viewBox="0 0 680 660" xmlns="http://www.w3.org/2000/svg">
<defs>
  <marker id="arrow" viewBox="0 0 10 10" refX="8" refY="5" markerWidth="6" markerHeight="6" orient="auto-start-reverse">
    <path d="M2 1L8 5L2 9" fill="none" stroke="context-stroke" stroke-width="1.5" stroke-linecap="round" stroke-linejoin="round"/>
  </marker>
  <style>
    text { font-family: sans-serif; fill: #333; }
    .th  { font-size: 13px; font-weight: 600; }
    .ts  { font-size: 11px; font-weight: 400; fill: #666; }
    .col-header rect { fill: #e8e8e8; stroke: #bbb; stroke-width: 0.5; }
    .input    rect { fill: #E1F5EE; stroke: #1D9E75; stroke-width: 0.5; }
    .reactive rect { fill: #EEEDFE; stroke: #534AB7; stroke-width: 0.5; }
    .output   rect { fill: #FAECE7; stroke: #993C1D; stroke-width: 0.5; }
  </style>
</defs>
<g class="col-header"><rect x="30" y="20" width="130" height="28" rx="6"/><text class="th" x="95" y="39" text-anchor="middle">Inputs</text></g>
<g class="col-header"><rect x="230" y="20" width="160" height="28" rx="6"/><text class="th" x="310" y="39" text-anchor="middle">Reactive expressions</text></g>
<g class="col-header"><rect x="470" y="20" width="180" height="28" rx="6"/><text class="th" x="560" y="39" text-anchor="middle">Outputs</text></g>
<g class="input"><rect x="30" y="68" width="130" height="44" rx="6"/><text class="th" x="95" y="86" text-anchor="middle">Variable</text><text class="ts" x="95" y="102" text-anchor="middle">dropdown</text></g>
<g class="input"><rect x="30" y="128" width="130" height="44" rx="6"/><text class="th" x="95" y="146" text-anchor="middle">Date range</text><text class="ts" x="95" y="162" text-anchor="middle">slider</text></g>
<g class="input"><rect x="30" y="218" width="130" height="44" rx="6"/><text class="th" x="95" y="236" text-anchor="middle">Click polygon</text><text class="ts" x="95" y="252" text-anchor="middle">map event</text></g>
<g class="input"><rect x="30" y="308" width="130" height="44" rx="6"/><text class="th" x="95" y="326" text-anchor="middle">Click station</text><text class="ts" x="95" y="342" text-anchor="middle">map event</text></g>
<g class="input"><rect x="30" y="398" width="130" height="44" rx="6"/><text class="th" x="95" y="416" text-anchor="middle">Click table row</text><text class="ts" x="95" y="432" text-anchor="middle">DT selection</text></g>
<g class="input"><rect x="30" y="578" width="130" height="44" rx="6"/><text class="th" x="95" y="596" text-anchor="middle">Layer toggles</text><text class="ts" x="95" y="612" text-anchor="middle">checkboxes</text></g>
<g class="reactive"><rect x="230" y="88" width="160" height="44" rx="6"/><text class="th" x="310" y="106" text-anchor="middle">wq_filtered()</text><text class="ts" x="310" y="122" text-anchor="middle">filter param + date</text></g>
<g class="reactive"><rect x="230" y="198" width="160" height="44" rx="6"/><text class="th" x="310" y="216" text-anchor="middle">wq_station()</text><text class="ts" x="310" y="232" text-anchor="middle">single station rows</text></g>
<g class="reactive"><rect x="230" y="308" width="160" height="44" rx="6"/><text class="th" x="310" y="326" text-anchor="middle">selected_ws()</text><text class="ts" x="310" y="342" text-anchor="middle">sf polygon</text></g>
<g class="reactive"><rect x="230" y="378" width="160" height="44" rx="6"/><text class="th" x="310" y="396" text-anchor="middle">nlcd_in_ws()</text><text class="ts" x="310" y="412" text-anchor="middle">crop + mask raster</text></g>
<g class="reactive"><rect x="230" y="448" width="160" height="44" rx="6"/><text class="th" x="310" y="466" text-anchor="middle">nlcd_summary()</text><text class="ts" x="310" y="482" text-anchor="middle">pixel count table</text></g>
<g class="reactive"><rect x="230" y="518" width="160" height="44" rx="6"/><text class="th" x="310" y="536" text-anchor="middle">ws_summary()</text><text class="ts" x="310" y="552" text-anchor="middle">stats per station</text></g>
<g class="output"><rect x="470" y="68" width="180" height="44" rx="6"/><text class="th" x="560" y="86" text-anchor="middle">Leaflet map</text><text class="ts" x="560" y="102" text-anchor="middle">markers + highlight</text></g>
<g class="output"><rect x="470" y="198" width="180" height="44" rx="6"/><text class="th" x="560" y="216" text-anchor="middle">Time series plot</text><text class="ts" x="560" y="232" text-anchor="middle">plotly + smoother</text></g>
<g class="output"><rect x="470" y="448" width="180" height="44" rx="6"/><text class="th" x="560" y="466" text-anchor="middle">Land cover chart</text><text class="ts" x="560" y="482" text-anchor="middle">NLCD bar chart</text></g>
<g class="output"><rect x="470" y="518" width="180" height="44" rx="6"/><text class="th" x="560" y="536" text-anchor="middle">Summary table</text><text class="ts" x="560" y="552" text-anchor="middle">DT per station</text></g>
<line x1="160" y1="86" x2="228" y2="104" stroke="#1D9E75" stroke-width="1" fill="none" marker-end="url(#arrow)"/>
<line x1="160" y1="146" x2="228" y2="112" stroke="#1D9E75" stroke-width="1" fill="none" marker-end="url(#arrow)"/>
<line x1="160" y1="240" x2="228" y2="326" stroke="#1D9E75" stroke-width="1" fill="none" marker-end="url(#arrow)"/>
<path d="M160 330 L200 330 L200 220 L228 220" stroke="#1D9E75" stroke-width="1" fill="none" marker-end="url(#arrow)"/>
<path d="M160 420 L188 420 L188 220 L228 220" stroke="#1D9E75" stroke-width="1" fill="none" marker-end="url(#arrow)"/>
<path d="M160 600 L455 600 L455 104 L468 104" stroke="#1D9E75" stroke-width="1" fill="none" stroke-dasharray="4 3" marker-end="url(#arrow)"/>
<line x1="310" y1="132" x2="310" y2="196" stroke="#534AB7" stroke-width="1" fill="none" marker-end="url(#arrow)"/>
<path d="M390 108 L435 108 L435 536 L390 536" stroke="#534AB7" stroke-width="1" fill="none" marker-end="url(#arrow)"/>
<line x1="310" y1="352" x2="310" y2="376" stroke="#534AB7" stroke-width="1" fill="none" marker-end="url(#arrow)"/>
<line x1="310" y1="422" x2="310" y2="446" stroke="#534AB7" stroke-width="1" fill="none" marker-end="url(#arrow)"/>
<line x1="390" y1="98" x2="468" y2="88" stroke="#993C1D" stroke-width="1" fill="none" marker-end="url(#arrow)"/>
<path d="M390 320 L448 320 L448 100 L468 100" stroke="#993C1D" stroke-width="1" fill="none" marker-end="url(#arrow)"/>
<line x1="390" y1="218" x2="468" y2="218" stroke="#993C1D" stroke-width="1" fill="none" marker-end="url(#arrow)"/>
<line x1="390" y1="466" x2="468" y2="466" stroke="#993C1D" stroke-width="1" fill="none" marker-end="url(#arrow)"/>
<line x1="390" y1="536" x2="468" y2="536" stroke="#993C1D" stroke-width="1" fill="none" marker-end="url(#arrow)"/>
<rect x="30" y="632" width="10" height="10" rx="2" fill="#1D9E75"/>
<text class="ts" x="46" y="642">input trigger</text>
<rect x="160" y="632" width="10" height="10" rx="2" fill="#534AB7"/>
<text class="ts" x="176" y="642">reactive chain</text>
<rect x="310" y="632" width="10" height="10" rx="2" fill="#993C1D"/>
<text class="ts" x="326" y="642">render output</text>
<line x1="440" y1="637" x2="464" y2="637" stroke="#1D9E75" stroke-width="1" stroke-dasharray="4 3" marker-end="url(#arrow)"/>
<text class="ts" x="470" y="642">direct to output</text>
</svg>
