<svg width="100%" viewBox="0 0 680 460" xmlns="http://www.w3.org/2000/svg">
<defs>
  <marker id="arrow" viewBox="0 0 10 10" refX="8" refY="5" markerWidth="6" markerHeight="6" orient="auto-start-reverse">
    <path d="M2 1L8 5L2 9" fill="none" stroke="context-stroke" stroke-width="1.5" stroke-linecap="round" stroke-linejoin="round"/>
  </marker>
  <style>
    text { font-family: sans-serif; fill: #333; }
    .th  { font-size: 13px; font-weight: 600; }
    .ts  { font-size: 11px; font-weight: 400; fill: #666; }
    .col-header rect { fill: #e8e8e8; stroke: #bbb; stroke-width: 0.5; }
    .input    rect { fill: #E1F5EE; stroke: #1D9E75; stroke-width: 0.5; }
    .reactive rect { fill: #EEEDFE; stroke: #534AB7; stroke-width: 0.5; }
    .output   rect { fill: #FAECE7; stroke: #993C1D; stroke-width: 0.5; }
  </style>
</defs>
<g class="col-header"><rect x="30" y="20" width="130" height="28" rx="6"/><text class="th" x="95" y="39" text-anchor="middle">Inputs</text></g>
<g class="col-header"><rect x="230" y="20" width="160" height="28" rx="6"/><text class="th" x="310" y="39" text-anchor="middle">Reactive expressions</text></g>
<g class="col-header"><rect x="470" y="20" width="180" height="28" rx="6"/><text class="th" x="560" y="39" text-anchor="middle">Outputs</text></g>
<g class="input"><rect x="30" y="80" width="130" height="44" rx="6"/><text class="th" x="95" y="98" text-anchor="middle">Variable</text><text class="ts" x="95" y="114" text-anchor="middle">dropdown</text></g>
<g class="input"><rect x="30" y="260" width="130" height="44" rx="6"/><text class="th" x="95" y="278" text-anchor="middle">Click station</text><text class="ts" x="95" y="294" text-anchor="middle">map marker</text></g>
<g class="reactive"><rect x="230" y="80" width="160" height="44" rx="6"/><text class="th" x="310" y="98" text-anchor="middle">station_means()</text><text class="ts" x="310" y="114" text-anchor="middle">mean per station</text></g>
<g class="reactive"><rect x="230" y="260" width="160" height="44" rx="6"/><text class="th" x="310" y="278" text-anchor="middle">wq_station()</text><text class="ts" x="310" y="294" text-anchor="middle">filter station + param</text></g>
<g class="output"><rect x="470" y="80" width="180" height="44" rx="6"/><text class="th" x="560" y="98" text-anchor="middle">Leaflet map</text><text class="ts" x="560" y="114" text-anchor="middle">markers + legend</text></g>
<g class="output"><rect x="470" y="260" width="180" height="44" rx="6"/><text class="th" x="560" y="278" text-anchor="middle">Time series plot</text><text class="ts" x="560" y="294" text-anchor="middle">plotly line chart</text></g>
<line x1="160" y1="102" x2="228" y2="102" stroke="#1D9E75" stroke-width="1" fill="none" marker-end="url(#arrow)"/>
<path d="M160 102 L200 102 L200 282 L228 282" stroke="#1D9E75" stroke-width="1" fill="none" marker-end="url(#arrow)"/>
<line x1="160" y1="282" x2="228" y2="282" stroke="#1D9E75" stroke-width="1" fill="none" marker-end="url(#arrow)"/>
<path d="M160 282 L170 282 L170 252 L455 252 L455 114 L468 114" stroke="#1D9E75" stroke-width="1" fill="none" stroke-dasharray="4 3" marker-end="url(#arrow)"/>
<line x1="390" y1="102" x2="468" y2="102" stroke="#993C1D" stroke-width="1" fill="none" marker-end="url(#arrow)"/>
<line x1="390" y1="282" x2="468" y2="282" stroke="#993C1D" stroke-width="1" fill="none" marker-end="url(#arrow)"/>
<text class="ts" x="95" y="148" text-anchor="middle" fill="#888">Step 4 (UI)</text>
<text class="ts" x="310" y="148" text-anchor="middle" fill="#888">Step 5.2 (server)</text>
<text class="ts" x="310" y="318" text-anchor="middle" fill="#888">Step 5.2 (server)</text>
<text class="ts" x="560" y="148" text-anchor="middle" fill="#888">Steps 5.3 + 5.4b</text>
<text class="ts" x="560" y="318" text-anchor="middle" fill="#888">Step 5.5</text>
<rect x="30" y="380" width="10" height="10" rx="2" fill="#1D9E75"/>
<text class="ts" x="46" y="390">input trigger</text>
<rect x="160" y="380" width="10" height="10" rx="2" fill="#534AB7"/>
<text class="ts" x="176" y="390">reactive chain</text>
<rect x="310" y="380" width="10" height="10" rx="2" fill="#993C1D"/>
<text class="ts" x="326" y="390">render output</text>
<line x1="440" y1="385" x2="464" y2="385" stroke="#1D9E75" stroke-width="1" stroke-dasharray="4 3" marker-end="url(#arrow)"/>
<text class="ts" x="470" y="390">observer side effect</text>
<text class="ts" x="340" y="420" text-anchor="middle" fill="#aaa">Observer (Step 5.4): click -> rv$selected_station -> invalidates wq_station()</text>
<text class="ts" x="340" y="438" text-anchor="middle" fill="#aaa">Observer (Step 5.4b): station_means() changes -> recolors map markers</text>
</svg>
